<svg id="svg" xmlns="http://www.w3.org/2000/svg" xmlns:xlink="http://www.w3.org/1999/xlink" width="400" height="475.92954990215264" viewBox="0, 0, 400,475.92954990215264"><g id="svgg"><path id="path0" d="M189.432 26.390 C 155.256 30.227,134.029 37.058,114.145 50.620 C 109.290 53.931,100.732 59.265,95.126 62.474 C 69.142 77.347,55.609 91.812,55.585 104.738 C 55.563 116.633,59.005 123.174,67.573 127.523 C 76.756 132.184,78.606 130.062,79.852 113.438 C 81.107 96.683,81.532 95.360,83.868 100.924 C 84.753 103.031,86.396 104.798,89.138 106.592 L 93.123 109.198 93.103 116.243 C 93.037 139.724,91.543 147.243,86.279 150.588 C 84.677 151.606,82.661 153.242,81.800 154.224 C 76.200 160.612,70.440 161.758,64.188 157.730 C 59.197 154.514,59.357 154.542,57.523 156.568 C 55.232 159.100,55.080 165.621,57.166 171.888 C 60.382 181.553,58.601 192.975,51.164 210.387 C 45.684 223.217,42.524 239.383,44.209 245.962 C 45.586 251.338,45.329 253.497,42.613 259.359 C 41.604 261.536,40.549 265.160,40.267 267.413 L 39.756 271.509 33.772 275.010 C 26.440 279.299,24.035 281.782,18.500 290.782 C 13.375 299.116,13.341 298.980,19.754 295.817 L 24.819 293.319 32.175 297.733 C 39.234 301.969,39.417 302.147,36.704 302.150 C 34.986 302.151,32.761 301.395,31.029 300.219 C 27.982 298.152,27.524 298.615,29.274 301.996 C 32.013 307.290,40.672 309.271,42.930 305.121 C 43.643 303.810,45.051 301.726,46.058 300.488 L 47.889 298.239 45.613 298.239 C 40.495 298.239,35.181 295.880,30.851 291.686 C 23.934 284.986,26.073 283.796,33.734 290.081 C 40.042 295.255,45.443 295.609,53.489 291.374 C 55.714 290.204,57.854 289.108,58.245 288.939 C 58.972 288.626,58.356 298.657,57.446 301.957 C 56.567 305.144,55.577 303.796,55.577 299.413 C 55.577 294.406,55.002 294.179,51.183 297.679 C 48.154 300.455,45.775 309.455,48.714 307.021 C 49.750 306.163,50.487 306.728,53.821 310.935 C 61.253 320.312,62.767 326.027,59.790 333.467 L 58.432 336.862 57.370 333.797 C 55.220 327.585,43.038 317.204,26.289 307.311 C 12.103 298.932,12.766 298.966,8.035 306.376 C 6.083 309.435,3.476 313.221,2.242 314.790 L 0.000 317.642 0.000 396.786 L 0.000 475.930 29.941 475.930 L 59.883 475.931 59.645 457.339 C 59.497 445.710,59.881 432.005,60.670 420.744 C 61.364 410.841,62.256 397.698,62.653 391.536 C 63.050 385.373,63.524 380.088,63.708 379.791 C 63.892 379.494,64.605 374.496,65.293 368.686 C 67.329 351.478,68.227 346.739,68.953 349.369 C 69.545 351.519,68.901 360.338,67.341 371.429 C 66.917 374.442,66.203 382.016,65.753 388.258 C 65.304 394.501,64.379 405.597,63.697 412.916 C 62.378 427.076,62.068 451.571,63.017 466.732 L 63.593 475.930 111.137 475.930 L 158.681 475.930 160.750 468.232 C 161.887 463.999,162.822 459.860,162.827 459.035 C 162.844 456.470,166.673 450.641,170.617 447.176 C 176.542 441.972,180.039 436.153,180.039 431.497 C 180.039 422.622,172.005 407.025,160.870 394.282 C 155.700 388.365,153.370 385.072,153.116 383.323 C 151.150 369.801,149.911 366.282,142.924 354.362 C 140.316 349.913,140.792 348.756,143.976 351.806 C 148.244 355.895,151.064 362.557,153.407 374.084 C 155.710 385.409,157.375 389.824,159.343 389.824 C 160.260 389.824,160.347 389.492,159.731 388.341 C 158.379 385.815,157.894 378.536,158.797 374.327 C 159.816 369.577,159.219 365.692,155.651 353.856 C 153.955 348.228,153.467 345.583,154.088 345.376 C 154.635 345.193,154.990 343.233,154.990 340.397 C 154.990 334.668,156.106 334.998,157.398 341.109 C 157.920 343.577,159.529 350.814,160.974 357.191 C 162.419 363.569,163.601 369.996,163.601 371.474 C 163.601 378.609,168.424 396.505,170.167 395.837 C 170.912 395.551,172.235 397.821,174.571 403.389 C 178.308 412.301,181.523 418.347,182.177 417.693 C 182.415 417.454,182.200 416.764,181.698 416.159 C 180.786 415.060,178.440 407.024,178.512 405.246 C 178.603 402.985,183.881 414.734,183.915 417.275 C 183.978 421.911,186.293 428.783,187.229 427.111 C 187.921 425.874,188.282 426.044,190.642 428.715 L 193.281 431.703 193.314 428.890 C 193.332 427.343,192.642 424.029,191.781 421.526 C 190.003 416.360,189.822 413.460,191.102 410.652 C 191.782 409.159,191.662 405.739,190.586 395.938 C 188.176 374.004,188.279 370.054,191.035 378.680 C 192.548 383.415,193.605 383.713,193.077 379.256 C 192.498 374.363,194.331 354.799,195.589 352.448 C 196.103 351.488,197.407 342.365,198.487 332.175 C 200.973 308.732,202.123 306.249,201.698 325.245 C 201.472 335.376,200.891 341.973,199.633 348.728 C 198.173 356.561,197.958 359.746,198.337 367.906 C 198.586 373.288,198.397 384.736,197.915 393.346 C 196.553 417.699,196.732 428.969,198.453 427.248 C 200.180 425.521,202.282 409.022,201.973 399.609 C 200.718 361.300,201.695 351.777,209.507 326.181 C 212.652 315.877,212.741 311.810,209.904 307.944 C 207.138 304.175,205.568 284.363,207.973 283.574 C 209.047 283.221,210.531 287.934,210.618 291.977 C 210.651 293.483,210.980 295.421,211.350 296.282 C 212.322 298.543,212.317 286.750,211.343 278.984 C 210.726 274.061,210.808 271.246,211.720 266.089 C 213.558 255.698,212.953 247.335,210.219 245.336 C 208.728 244.245,208.647 242.365,210.041 241.208 C 211.257 240.199,221.465 236.795,222.896 236.922 C 223.504 236.975,223.875 236.002,223.875 234.355 L 223.875 231.703 212.571 231.703 C 205.879 231.703,201.069 232.022,200.783 232.485 C 199.793 234.086,197.260 233.340,197.260 231.448 C 197.260 226.847,200.162 225.829,213.175 225.862 C 232.928 225.913,234.591 227.457,233.639 244.866 C 233.245 252.051,233.488 256.441,234.769 265.341 C 236.700 278.758,236.786 283.295,235.257 291.176 C 234.629 294.415,233.745 301.644,233.294 307.241 C 228.215 370.137,228.597 367.044,224.230 380.612 C 220.408 392.487,220.746 393.465,226.182 386.265 C 232.009 378.546,233.252 374.932,233.260 365.670 C 233.265 361.211,233.816 354.342,234.485 350.406 C 235.154 346.469,235.874 342.104,236.086 340.705 C 236.304 339.257,236.933 338.160,237.544 338.160 C 238.718 338.160,240.406 334.075,242.201 326.895 C 243.502 321.689,245.010 319.404,245.010 322.637 C 245.010 327.185,242.505 338.514,240.240 344.209 C 236.651 353.232,234.225 367.906,236.323 367.906 C 237.266 367.906,238.748 363.530,238.748 360.744 C 238.748 357.272,240.158 358.120,240.731 361.937 C 241.092 364.347,240.775 366.955,239.660 370.743 C 237.458 378.225,234.057 390.225,232.790 394.987 C 232.207 397.181,229.966 401.677,227.810 404.979 C 221.383 414.825,220.048 426.419,226.416 417.091 C 227.984 414.795,230.341 411.369,231.653 409.479 C 233.904 406.239,235.288 402.557,237.232 394.637 C 238.413 389.826,238.858 390.994,237.952 396.526 C 237.276 400.654,237.366 401.412,238.752 403.295 C 240.711 405.956,240.700 406.471,238.582 411.742 C 237.064 415.519,236.843 417.582,236.775 428.571 C 236.732 435.460,236.278 442.993,235.766 445.312 C 235.253 447.631,234.792 450.978,234.741 452.749 C 234.560 459.050,233.460 451.832,233.361 443.688 C 233.310 439.518,232.733 433.798,232.079 430.979 C 230.913 425.949,230.928 425.766,232.874 421.143 C 234.636 416.956,236.671 407.146,235.942 406.352 C 235.790 406.186,235.038 407.200,234.271 408.605 C 233.504 410.010,231.732 412.867,230.333 414.954 C 228.933 417.041,227.789 419.062,227.789 419.445 C 227.789 420.806,224.523 424.266,223.231 424.274 C 222.509 424.278,220.089 425.133,217.853 426.174 C 210.784 429.465,210.303 431.157,210.093 453.489 C 209.996 463.749,209.711 472.350,209.460 472.602 C 208.225 473.836,207.828 470.892,207.725 459.736 C 207.588 444.771,207.690 444.956,196.447 439.391 C 188.196 435.308,183.623 434.303,181.761 436.164 C 180.385 437.541,180.612 438.356,182.372 438.356 C 192.557 438.356,192.628 446.726,182.614 466.485 C 177.502 476.570,177.421 475.930,183.814 475.930 L 189.155 475.930 189.997 469.863 C 190.822 463.914,194.278 444.469,194.598 443.977 C 194.687 443.839,196.198 444.460,197.956 445.357 C 202.933 447.896,203.833 449.857,203.289 456.983 C 202.960 461.303,203.219 464.790,204.204 469.276 L 205.579 475.538 218.960 475.752 L 232.342 475.966 232.932 469.098 C 233.475 462.772,233.583 462.447,234.300 464.971 C 235.413 468.893,238.535 451.736,239.142 438.356 C 239.623 427.770,240.684 419.300,242.373 412.556 C 243.058 409.822,243.444 403.733,243.444 395.660 L 243.444 383.038 246.594 375.297 C 251.257 363.836,252.410 363.207,249.759 373.571 C 248.926 376.830,247.845 385.235,247.354 392.287 C 246.115 410.055,239.254 459.779,236.406 471.624 C 235.992 473.346,235.645 475.020,235.635 475.342 C 235.625 475.665,237.202 475.930,239.139 475.930 C 241.076 475.930,242.661 475.764,242.661 475.562 C 242.661 473.340,247.856 432.627,249.356 423.092 C 253.665 395.700,254.379 390.545,255.479 378.865 C 256.782 365.031,257.189 366.167,250.328 364.491 C 243.671 362.865,244.013 362.801,244.622 365.575 C 245.196 368.187,244.369 374.572,243.562 373.763 C 243.282 373.482,243.039 370.904,243.022 368.035 C 243.005 365.166,242.491 361.142,241.879 359.093 C 240.879 355.740,240.910 354.878,242.193 350.482 C 246.864 334.476,247.277 332.307,247.318 323.530 C 247.355 315.520,248.065 312.341,249.252 314.868 C 250.088 316.647,248.856 307.346,247.580 302.238 C 246.426 297.620,246.432 296.476,247.667 287.365 C 249.848 271.264,249.778 247.783,247.526 240.008 C 244.982 231.223,241.290 222.186,239.153 219.512 C 236.622 216.345,236.063 217.436,237.987 221.786 C 238.985 224.042,239.849 228.356,240.267 233.163 C 240.637 237.422,241.364 241.700,241.883 242.670 C 243.961 246.553,241.485 259.750,239.122 257.387 C 238.877 257.142,238.392 250.983,238.044 243.701 C 237.666 235.809,237.011 229.685,236.422 228.538 C 229.318 214.726,219.435 199.589,221.792 206.131 C 222.077 206.919,222.309 208.405,222.309 209.433 C 222.309 210.737,222.649 211.171,223.436 210.869 C 224.723 210.375,226.556 215.834,225.781 217.855 C 225.181 219.416,193.354 220.996,193.347 219.465 C 193.347 219.407,194.755 215.975,196.477 211.837 C 199.935 203.529,199.937 203.523,198.828 203.523 C 197.128 203.523,191.528 209.545,188.519 214.610 C 184.804 220.863,184.405 221.105,185.159 216.644 C 185.986 211.745,187.557 207.731,190.152 203.886 C 192.631 200.212,191.794 198.754,187.912 199.986 C 185.538 200.739,174.987 212.393,170.446 219.279 C 163.651 229.583,164.376 224.133,171.753 209.456 C 178.722 195.590,179.400 193.442,177.005 192.816 C 173.922 192.010,175.264 190.080,180.446 187.866 C 182.590 186.950,185.225 185.381,186.301 184.378 C 187.378 183.376,190.196 181.320,192.564 179.809 C 197.203 176.851,201.164 172.994,202.777 169.865 C 203.331 168.790,203.923 168.323,204.091 168.828 C 204.740 170.776,201.058 176.047,196.214 180.105 C 189.356 185.850,187.426 189.210,188.924 192.795 C 192.133 200.476,204.880 202.217,217.888 196.750 C 224.733 193.873,226.658 194.360,230.483 199.933 C 236.284 208.388,241.017 210.204,236.084 202.082 C 234.525 199.516,231.642 193.948,229.675 189.707 C 224.132 177.751,219.099 173.623,216.014 178.501 C 214.780 180.452,215.175 180.966,217.516 180.452 C 222.390 179.381,224.095 184.692,219.569 186.850 C 217.925 187.635,216.830 188.725,216.830 189.577 C 216.830 191.085,214.904 191.533,214.090 190.215 C 213.824 189.785,212.759 189.432,211.723 189.432 C 207.950 189.432,206.668 182.566,208.519 172.273 C 209.872 164.748,210.892 163.352,216.202 161.754 C 220.633 160.421,220.744 160.508,220.744 165.328 C 220.744 178.451,234.471 185.392,248.848 179.538 C 252.460 178.067,252.341 177.384,251.316 193.697 C 250.351 209.063,250.789 211.962,254.278 213.301 C 256.062 213.986,256.212 213.278,255.186 209.002 C 253.261 200.979,255.949 203.994,260.354 214.799 C 263.629 222.831,264.426 229.724,263.153 238.996 C 262.669 242.519,261.896 253.327,261.434 263.014 C 260.352 285.685,259.675 292.436,257.663 300.587 C 256.760 304.247,255.104 313.202,253.983 320.488 C 252.797 328.194,250.802 337.363,249.213 342.406 C 245.352 354.657,245.231 355.246,246.841 353.916 C 247.993 352.964,248.141 353.067,248.141 354.830 C 248.141 362.611,261.091 363.708,265.661 356.314 C 265.928 355.882,266.815 355.703,267.631 355.917 C 270.920 356.777,272.739 354.445,274.309 347.358 C 274.846 344.931,276.321 344.426,276.321 346.670 C 276.321 349.133,282.707 347.429,287.360 343.724 C 289.480 342.036,292.880 340.006,294.916 339.212 C 296.952 338.419,301.236 336.448,304.437 334.834 C 310.970 331.538,312.780 331.094,309.653 333.553 C 304.008 337.994,317.298 333.273,325.831 327.806 C 337.186 320.532,355.389 316.720,359.438 320.769 C 360.298 321.629,360.306 321.626,349.119 324.456 C 346.321 325.164,338.043 328.579,330.724 332.045 C 307.508 343.040,294.645 347.651,290.335 346.524 C 288.555 346.059,288.389 346.984,290.011 348.329 C 291.890 349.889,290.607 350.685,286.213 350.685 C 278.699 350.685,266.405 360.409,267.249 365.685 C 267.894 369.722,266.400 370.374,263.758 367.209 L 261.648 364.682 261.226 375.883 C 260.913 384.181,259.971 391.643,257.591 404.674 C 255.824 414.349,254.472 423.331,254.587 424.635 C 254.701 425.939,254.160 431.233,253.385 436.399 C 252.610 441.566,251.108 451.605,250.047 458.708 C 248.986 465.812,247.956 472.593,247.758 473.777 L 247.397 475.930 323.699 475.930 L 400.000 475.930 400.000 454.960 C 400.000 417.923,395.119 395.309,379.606 360.470 C 372.828 345.248,370.511 339.065,368.270 330.225 C 365.952 321.079,365.590 320.277,361.616 315.460 C 358.819 312.070,358.724 311.758,359.089 307.151 C 359.915 296.721,355.965 289.959,346.344 285.331 C 339.867 282.215,338.286 280.218,334.644 270.543 C 330.363 259.168,329.462 258.544,316.221 257.786 L 307.632 257.295 307.643 253.305 C 307.660 246.692,308.242 245.359,310.278 247.265 C 311.978 248.857,316.243 250.811,316.243 249.998 C 316.243 249.749,314.135 247.103,311.559 244.117 C 302.903 234.084,301.707 224.443,307.828 214.021 C 311.339 208.043,312.475 203.977,310.799 203.392 C 310.387 203.249,309.368 200.930,308.532 198.239 L 307.013 193.346 309.280 193.346 C 312.271 193.346,312.146 192.290,308.931 190.392 C 306.396 188.897,302.175 183.934,303.469 183.972 C 303.821 183.982,305.431 184.297,307.045 184.672 C 312.665 185.977,310.490 182.417,304.725 180.876 C 300.487 179.743,299.012 177.597,299.056 172.624 L 299.091 168.689 300.672 171.685 C 302.026 174.252,305.795 176.908,308.083 176.908 C 309.015 176.908,307.545 172.620,305.668 169.863 C 304.642 168.356,303.288 164.637,302.660 161.599 C 301.168 154.385,299.819 151.283,295.948 146.156 C 292.215 141.211,292.066 140.342,294.773 139.313 C 299.636 137.464,296.893 135.785,285.095 133.391 C 283.522 133.071,277.104 124.627,277.104 122.876 C 277.104 122.568,279.206 122.078,281.777 121.787 C 287.922 121.092,288.339 120.095,282.764 119.424 C 275.330 118.528,260.635 111.731,255.488 106.808 C 252.223 103.685,251.151 99.886,247.330 77.886 C 243.467 55.646,241.575 49.307,236.112 40.298 L 231.849 33.268 226.492 31.962 C 223.546 31.244,219.198 30.622,216.830 30.580 C 213.066 30.514,207.899 29.011,211.311 28.975 C 212.026 28.967,212.171 28.690,211.703 28.225 C 209.957 26.494,197.586 25.474,189.432 26.390 M238.416 101.171 C 249.801 105.481,278.459 128.988,288.709 142.422 C 294.658 150.219,294.282 149.470,296.342 157.633 C 298.520 166.260,297.759 165.704,290.585 153.425 C 280.725 136.547,272.586 128.497,264.716 127.837 C 257.566 127.237,257.663 127.627,265.594 131.344 C 272.824 134.732,276.201 137.785,280.195 144.548 C 281.680 147.062,285.078 152.642,287.746 156.947 C 290.415 161.252,293.011 166.360,293.516 168.297 C 294.021 170.235,296.708 177.491,299.486 184.422 C 303.171 193.614,304.669 198.434,305.024 202.231 C 305.856 211.145,303.093 207.819,299.918 196.086 C 297.843 188.418,296.400 185.256,292.460 179.746 C 283.824 167.669,282.484 170.224,290.749 183.008 C 292.616 185.896,294.731 189.666,295.449 191.387 L 296.755 194.515 293.974 191.820 C 290.496 188.449,290.507 192.505,294.009 204.892 C 294.417 206.334,294.197 206.654,292.795 206.654 C 291.241 206.654,291.336 206.893,293.824 209.240 C 297.049 212.281,298.065 215.403,296.674 218.002 C 296.044 219.180,295.893 220.908,296.252 222.834 L 296.812 225.832 294.858 224.002 C 293.784 222.996,291.798 220.096,290.445 217.558 C 289.092 215.020,286.042 211.088,283.667 208.820 C 278.289 203.686,276.837 201.081,277.521 197.790 C 278.358 193.759,281.953 183.953,282.593 183.953 C 283.463 183.953,284.154 187.180,283.686 189.048 C 283.210 190.942,284.546 194.912,285.659 194.912 C 287.703 194.912,287.346 189.641,284.888 183.529 C 283.510 180.103,280.164 169.550,277.450 160.078 C 272.935 144.314,272.298 142.668,269.918 140.616 C 265.091 136.454,260.422 133.855,257.772 133.855 C 254.036 133.855,254.585 134.883,259.383 136.872 C 261.691 137.829,264.421 139.535,265.449 140.664 C 267.114 142.491,267.147 142.647,265.753 142.084 C 255.246 137.836,248.692 142.549,251.982 151.987 C 253.136 155.298,252.598 155.773,247.694 155.773 L 243.426 155.773 243.889 152.838 C 244.898 146.438,241.437 143.660,234.070 144.956 C 226.688 146.255,219.413 146.611,218.851 145.701 C 218.025 144.365,216.830 144.636,216.830 146.159 C 216.830 147.479,224.404 155.773,225.609 155.773 C 225.947 155.773,226.228 154.804,226.234 153.620 C 226.260 148.269,226.920 147.742,229.787 150.783 C 232.665 153.835,234.476 153.862,237.711 150.904 C 239.957 148.851,241.007 149.643,240.956 153.353 L 240.914 156.381 236.112 157.425 C 230.695 158.604,228.370 158.611,217.071 157.482 C 206.483 156.424,205.356 155.790,202.904 149.511 C 198.066 137.122,192.994 132.603,178.441 127.714 C 168.470 124.364,165.078 122.800,161.741 120.014 C 160.503 118.981,159.330 118.295,159.135 118.491 C 158.668 118.958,161.324 123.110,162.604 123.914 C 164.007 124.795,163.844 126.027,162.324 126.027 C 160.457 126.027,154.207 119.477,154.207 117.520 C 154.207 116.559,154.705 115.851,155.382 115.851 C 156.027 115.851,156.727 115.837,156.936 115.820 C 157.364 115.786,160.045 114.800,170.254 110.925 C 196.431 100.990,226.554 96.679,238.416 101.171 M212.524 104.190 C 210.372 104.564,205.264 105.717,201.174 106.753 L 193.738 108.637 201.174 108.714 C 207.165 108.777,210.741 108.271,219.569 106.114 L 230.528 103.436 223.483 103.473 C 219.609 103.493,214.677 103.816,212.524 104.190 M236.684 107.627 C 236.397 108.375,235.625 108.642,234.538 108.369 C 233.604 108.135,231.968 108.277,230.901 108.685 L 228.963 109.428 231.166 110.291 C 232.378 110.766,233.875 111.155,234.493 111.155 C 235.825 111.155,236.038 116.348,234.873 120.409 C 234.319 122.341,234.369 122.926,235.069 122.710 C 238.175 121.749,241.331 106.458,238.423 106.458 C 237.713 106.458,236.931 106.984,236.684 107.627 M250.909 114.481 C 251.208 115.881,251.687 117.378,251.974 117.808 C 252.635 118.801,252.455 124.746,251.728 125.923 C 251.126 126.898,253.611 127.106,256.524 126.325 C 258.183 125.880,258.139 125.754,255.406 123.177 C 252.148 120.104,252.617 118.866,257.506 117.627 L 260.217 116.941 255.845 114.439 C 250.432 111.342,250.238 111.344,250.909 114.481 M152.367 128.375 C 153.507 128.376,156.556 134.154,156.556 136.315 C 156.556 137.750,156.232 137.883,153.838 137.433 C 150.425 136.793,147.077 138.416,145.599 141.429 C 143.949 144.793,143.604 141.351,145.091 136.346 C 146.307 132.250,145.780 130.040,142.803 126.750 C 140.397 124.092,141.852 123.825,146.575 126.060 C 149.266 127.333,151.872 128.375,152.367 128.375 M235.225 124.462 C 234.364 124.832,232.340 125.159,230.726 125.190 C 227.470 125.251,223.061 128.621,220.499 133.007 L 219.080 135.436 223.239 133.745 C 229.028 131.391,233.583 130.240,239.622 129.603 L 244.801 129.056 247.058 132.628 C 249.522 136.529,250.489 137.081,250.489 134.587 C 250.489 127.742,241.487 121.771,235.225 124.462 M179.072 134.971 C 186.840 137.039,193.346 141.557,193.346 144.884 C 193.346 148.538,191.010 158.413,189.996 159.045 C 185.689 161.731,160.952 164.371,163.444 161.879 C 164.834 160.489,164.588 158.549,162.818 156.947 C 160.634 154.970,160.866 154.169,163.473 154.691 C 164.993 154.995,166.120 154.708,167.047 153.780 C 168.241 152.587,168.763 152.545,171.440 153.428 C 175.019 154.610,178.890 153.465,179.674 150.992 C 180.240 149.211,181.081 149.110,182.374 150.669 C 183.102 151.546,183.125 152.428,182.470 154.308 C 181.994 155.673,181.605 156.920,181.605 157.080 C 181.605 157.927,187.751 154.072,188.180 152.956 C 189.722 148.937,183.014 145.169,175.552 145.864 C 166.873 146.672,152.313 156.415,157.124 158.195 C 158.015 158.525,158.991 159.195,159.294 159.684 C 160.316 161.338,159.000 161.439,156.401 159.905 C 154.979 159.066,152.682 158.317,151.295 158.240 C 147.209 158.013,144.652 156.751,145.108 155.185 C 145.328 154.432,145.745 152.139,146.034 150.088 C 146.730 145.158,147.470 144.909,149.060 149.074 C 151.179 154.622,151.997 154.802,155.602 150.510 C 157.329 148.454,159.924 146.355,161.367 145.846 C 178.656 139.755,179.392 139.335,172.775 139.335 C 168.405 139.335,162.035 137.450,162.035 136.157 C 162.035 133.772,171.969 133.080,179.072 134.971 M112.576 142.661 C 110.362 155.631,108.238 161.586,106.115 160.771 C 104.058 159.982,103.909 162.418,105.597 169.224 C 107.928 178.620,107.982 180.735,105.927 182.130 C 103.718 183.629,102.659 182.107,98.923 172.057 C 95.668 163.302,95.953 163.614,90.718 163.082 C 86.543 162.658,82.192 164.549,82.192 166.787 C 82.192 167.185,80.925 169.274,79.377 171.429 C 74.481 178.244,75.089 184.647,80.773 186.120 C 85.089 187.239,84.388 188.650,79.517 188.650 C 76.154 188.650,75.147 188.379,75.147 187.476 C 75.147 185.965,74.045 185.973,72.784 187.493 C 72.230 188.161,71.175 188.488,70.387 188.238 C 69.233 187.872,68.183 189.391,64.576 196.635 C 59.405 207.025,58.227 208.571,59.954 202.707 C 62.625 193.633,66.098 185.892,70.153 179.970 L 74.375 173.805 70.725 174.306 C 66.132 174.935,66.641 173.447,71.462 172.152 C 73.932 171.488,76.036 169.927,79.882 165.905 C 87.088 158.368,94.545 154.876,96.327 158.205 C 96.949 159.368,97.455 159.610,98.040 159.025 C 98.567 158.498,99.359 158.456,100.208 158.910 C 102.005 159.872,104.312 157.352,106.302 152.250 C 108.594 146.377,109.232 142.905,107.916 143.478 C 104.232 145.083,97.155 147.871,95.505 148.367 C 89.909 150.050,100.514 142.940,107.922 140.042 C 113.305 137.937,113.376 137.977,112.576 142.661 M141.683 157.535 C 160.885 167.028,172.030 168.180,188.611 162.387 C 192.571 161.004,195.752 160.470,200.031 160.470 C 207.254 160.470,207.054 161.463,199.484 163.184 C 191.270 165.053,190.254 165.807,186.711 172.673 C 182.127 181.556,173.250 185.039,171.937 178.470 C 171.004 173.804,166.288 170.265,157.339 167.512 C 145.850 163.979,132.528 156.879,128.002 151.879 L 126.510 150.230 129.596 151.658 C 131.293 152.443,136.732 155.088,141.683 157.535 M122.586 155.589 C 123.062 155.906,123.641 159.020,123.874 162.510 C 124.245 168.063,124.707 169.600,127.564 174.806 C 131.150 181.340,131.289 182.333,130.533 195.938 C 130.086 203.987,129.853 204.827,128.330 203.886 C 127.408 203.316,127.582 198.340,128.841 189.283 C 129.527 184.354,128.961 182.545,125.299 177.945 L 122.191 174.041 122.461 165.120 C 122.729 156.249,122.722 156.209,121.243 158.036 C 116.933 163.358,116.577 172.115,120.298 181.266 C 123.698 189.626,122.943 206.998,118.891 213.661 C 116.827 217.054,116.517 216.485,117.417 210.959 C 118.308 205.482,118.004 204.913,115.731 207.803 C 113.751 210.321,109.879 212.133,106.483 212.133 C 103.703 212.133,103.628 212.382,105.573 215.143 C 112.231 224.597,112.052 228.907,104.293 245.946 C 101.216 252.703,98.133 260.277,97.442 262.776 C 94.828 272.230,86.505 288.216,87.945 281.018 C 88.640 277.543,87.160 278.138,84.717 282.317 C 79.209 291.736,69.663 303.043,69.672 300.136 C 69.680 298.005,71.864 294.953,75.969 291.340 C 77.914 289.628,80.522 286.341,81.765 284.036 C 83.008 281.730,85.462 278.226,87.218 276.248 C 89.775 273.370,91.018 270.799,93.457 263.351 C 95.133 258.235,98.042 251.132,99.923 247.567 C 105.077 237.795,107.487 230.037,106.498 226.401 C 105.135 221.387,100.338 216.218,96.766 215.914 L 93.728 215.656 100.289 212.199 C 114.786 204.560,115.144 203.954,111.814 192.720 C 107.830 179.278,115.978 151.192,122.586 155.589 M271.329 165.713 C 275.576 174.327,276.138 180.665,273.677 192.190 C 271.536 202.216,270.666 203.317,269.980 196.869 C 269.660 193.855,268.901 189.800,268.295 187.856 C 267.619 185.692,267.329 182.429,267.546 179.433 C 267.875 174.886,267.756 174.429,265.848 172.929 C 263.626 171.181,263.070 169.417,264.971 170.146 C 265.837 170.479,266.145 170.038,266.145 168.463 C 266.145 167.290,266.485 165.143,266.902 163.691 C 267.397 161.963,267.388 160.547,266.874 159.587 C 266.388 158.679,266.375 158.121,266.838 158.121 C 267.250 158.121,269.271 161.537,271.329 165.713 M264.975 161.259 C 265.243 161.693,263.943 162.717,262.085 163.534 C 259.988 164.458,256.977 166.984,254.140 170.203 C 241.472 184.572,222.531 180.513,225.013 163.961 L 225.536 160.470 245.012 160.470 C 257.255 160.470,264.668 160.763,264.975 161.259 M242.611 168.014 C 239.015 175.008,238.306 175.365,233.230 172.732 C 229.223 170.653,229.163 170.646,230.286 172.389 C 235.131 179.903,246.718 175.842,246.903 166.564 C 246.999 161.737,245.594 162.212,242.611 168.014 M155.778 171.554 C 160.963 173.304,171.464 182.129,169.313 182.927 C 167.645 183.546,157.014 177.969,154.990 175.414 C 154.344 174.599,152.675 173.694,151.281 173.403 C 148.559 172.835,147.561 171.900,148.337 170.646 C 149.033 169.519,150.162 169.657,155.778 171.554 M149.963 188.258 C 152.428 199.633,153.828 232.228,151.823 231.560 C 150.366 231.074,149.402 227.161,149.928 223.868 C 150.312 221.468,148.938 205.192,146.383 181.863 C 144.836 167.735,145.943 169.714,149.963 188.258 M258.688 175.304 C 259.409 176.697,259.889 179.724,259.898 182.936 C 259.909 186.810,260.548 190.058,262.246 194.874 C 265.845 205.079,265.089 210.045,261.199 201.761 C 255.541 189.716,255.883 191.162,256.458 181.707 C 257.047 172.010,257.022 172.081,258.688 175.304 M115.405 185.127 C 115.762 190.743,118.424 200.736,119.786 201.579 C 121.970 202.928,119.877 189.799,116.915 183.562 L 115.056 179.648 115.405 185.127 M243.017 192.671 C 241.574 197.017,241.737 205.188,243.322 207.917 C 243.995 209.076,244.195 207.963,244.250 202.740 C 244.289 199.080,244.596 194.413,244.932 192.368 C 245.740 187.460,244.693 187.626,243.017 192.671 M94.735 192.153 C 91.722 195.359,87.125 196.712,82.649 195.710 C 77.561 194.569,77.372 195.104,81.410 199.218 C 84.610 202.479,84.876 203.080,85.438 208.338 C 86.050 214.071,87.058 215.969,89.708 216.384 C 90.737 216.545,91.074 217.070,90.804 218.093 C 89.564 222.793,90.403 228.692,92.533 230.243 C 94.166 231.433,94.871 232.890,95.596 236.577 C 97.070 244.068,98.095 239.577,97.512 228.180 C 97.028 218.700,97.418 216.380,99.302 217.544 C 102.134 219.294,100.898 235.634,97.334 243.577 C 94.960 248.866,91.738 252.529,93.234 248.237 C 94.213 245.429,93.464 241.408,90.776 235.042 L 89.201 231.311 89.668 235.827 C 90.456 243.436,86.535 252.923,79.082 261.442 C 64.416 278.204,61.887 301.200,73.751 309.924 C 77.090 312.379,82.386 313.652,85.349 312.712 C 87.908 311.900,85.763 310.790,81.605 310.775 C 78.181 310.763,77.784 310.407,79.019 308.456 C 79.480 307.727,79.336 306.368,78.615 304.642 C 77.999 303.168,77.495 301.857,77.495 301.729 C 77.495 301.601,78.772 301.848,80.332 302.279 C 83.362 303.116,88.597 300.346,93.154 295.495 C 96.594 291.834,96.257 293.531,92.360 299.501 C 90.221 302.778,88.721 305.860,89.027 306.350 C 94.817 315.608,81.153 319.628,69.897 311.979 C 65.689 309.120,65.454 309.432,68.005 314.481 C 72.065 322.519,80.371 325.099,86.823 320.329 C 89.810 318.121,90.460 320.499,87.640 323.319 C 81.496 329.463,69.822 326.254,66.063 317.388 C 58.769 300.181,61.932 280.116,75.488 257.617 C 85.825 240.462,87.824 234.196,85.862 225.106 C 85.205 222.061,84.317 217.001,83.890 213.862 C 83.462 210.722,82.473 207.200,81.693 206.034 L 80.274 203.914 79.808 207.257 C 79.315 210.799,77.240 214.199,74.720 215.595 C 73.882 216.059,70.999 218.447,68.313 220.902 C 65.063 223.871,62.495 225.540,60.640 225.888 C 56.568 226.652,56.503 225.797,60.499 224.029 C 65.753 221.705,65.815 220.744,60.712 220.744 C 58.318 220.744,56.360 220.447,56.360 220.085 C 56.360 218.979,64.303 215.020,69.245 213.663 C 75.249 212.014,77.208 209.640,76.855 204.442 C 76.718 202.429,76.542 198.669,76.464 196.086 L 76.321 191.389 81.018 191.597 C 83.601 191.711,87.476 191.488,89.628 191.102 C 96.560 189.858,96.837 189.915,94.735 192.153 M108.826 197.565 C 107.863 201.836,99.932 209.864,93.370 213.212 C 88.423 215.735,86.157 206.397,89.925 199.012 C 91.915 195.111,92.506 194.807,91.864 198.017 C 91.609 199.295,91.641 201.946,91.935 203.909 L 92.470 207.478 96.358 205.362 C 98.497 204.198,102.260 201.387,104.722 199.114 C 107.184 196.842,109.249 194.967,109.311 194.947 C 109.373 194.928,109.155 196.106,108.826 197.565 M214.130 206.289 C 212.587 209.540,212.776 213.307,214.481 213.307 C 215.951 213.307,218.392 208.545,218.394 205.675 C 218.396 202.439,215.778 202.816,214.130 206.289 M274.899 212.524 C 275.657 213.386,276.864 215.675,277.581 217.613 C 278.299 219.550,279.736 223.072,280.773 225.440 L 282.660 229.746 277.880 225.049 C 272.539 219.799,271.217 217.437,270.440 211.747 L 269.906 207.838 271.714 209.398 C 272.708 210.257,274.142 211.663,274.899 212.524 M127.104 216.945 C 124.712 222.496,124.111 234.795,125.533 249.119 C 126.325 257.106,125.232 258.433,123.547 251.529 L 122.463 247.089 120.527 250.844 C 119.462 252.909,117.443 255.483,116.041 256.563 L 113.491 258.527 116.156 254.101 C 119.107 249.200,120.905 242.634,122.130 232.288 C 122.900 225.781,124.049 221.390,127.299 212.524 C 128.352 209.654,128.803 209.059,128.990 210.291 C 129.131 211.215,128.282 214.210,127.104 216.945 M180.629 220.548 C 180.193 229.420,179.582 231.661,171.293 254.795 C 167.516 265.337,166.656 277.216,169.003 286.435 C 169.805 289.586,169.946 293.267,169.552 300.746 C 169.259 306.284,169.408 318.288,169.882 327.423 C 170.756 344.264,169.980 352.854,167.507 353.686 C 167.081 353.829,166.703 355.062,166.668 356.425 L 166.604 358.904 165.475 356.320 C 162.938 350.511,160.219 333.389,160.819 326.990 C 161.590 318.759,162.861 320.109,162.726 329.014 C 162.580 338.583,165.678 350.484,167.545 347.531 C 169.934 343.754,165.983 322.325,162.341 319.303 C 161.657 318.735,161.269 316.906,161.298 314.386 C 161.348 309.854,162.577 302.754,162.728 306.120 C 162.865 309.191,165.131 316.243,165.979 316.243 C 166.985 316.243,166.947 310.090,165.837 293.151 C 164.868 278.375,165.232 270.909,167.898 250.881 C 168.585 245.714,169.532 238.508,170.002 234.867 C 170.844 228.339,174.029 220.723,178.603 214.300 C 180.936 211.023,181.077 211.456,180.629 220.548 M133.798 220.664 C 129.279 234.717,129.931 240.061,134.588 227.144 C 137.328 219.545,139.622 215.264,140.953 215.264 C 141.425 215.264,141.084 216.439,140.197 217.875 C 137.397 222.406,134.554 234.949,133.939 245.480 C 133.236 257.542,132.993 257.754,130.754 248.270 C 127.658 235.151,128.974 222.830,134.350 214.609 C 136.380 211.505,136.236 213.083,133.798 220.664 M285.237 215.593 C 285.499 216.635,285.494 218.058,285.227 218.754 C 284.952 219.470,285.363 220.706,286.175 221.603 C 287.289 222.834,287.386 223.326,286.609 223.806 C 285.913 224.236,286.365 224.737,288.097 225.455 C 289.562 226.061,292.480 228.889,295.195 232.331 C 300.788 239.425,300.966 241.135,297.506 254.517 C 295.109 263.790,295.117 263.804,299.514 257.839 L 301.181 255.577 304.099 258.560 C 305.703 260.200,306.891 261.654,306.737 261.791 C 306.584 261.927,304.435 262.620,301.962 263.330 C 296.401 264.926,294.775 266.951,295.901 270.878 C 296.855 274.204,296.874 273.973,295.635 273.973 C 291.437 273.973,289.800 267.614,291.916 259.532 C 292.811 256.119,293.550 252.599,293.559 251.712 C 293.578 249.959,295.883 244.845,297.866 242.156 C 299.065 240.529,298.969 240.402,294.860 238.177 L 290.616 235.878 290.183 241.031 C 289.765 245.990,286.654 257.169,285.901 256.416 C 285.699 256.215,286.130 250.755,286.856 244.284 C 288.212 232.219,288.077 230.260,285.683 227.192 C 282.959 223.704,281.770 213.699,284.079 213.699 C 284.454 213.699,284.976 214.551,285.237 215.593 M250.499 217.025 C 250.504 217.994,251.033 220.724,251.676 223.092 C 252.318 225.460,253.722 232.681,254.794 239.139 C 258.786 263.177,262.199 266.151,259.029 242.830 C 258.544 239.263,258.385 234.760,258.676 232.823 C 259.299 228.669,258.307 225.135,254.901 219.374 C 252.348 215.054,250.483 214.060,250.499 217.025 M67.521 230.415 C 62.990 235.090,60.254 238.826,57.259 244.423 C 52.964 252.447,51.515 254.359,54.021 248.695 C 54.838 246.847,55.730 243.765,56.004 241.845 C 56.939 235.272,57.892 233.318,60.928 231.750 C 62.506 230.935,65.677 228.651,67.975 226.676 C 74.599 220.981,74.304 223.414,67.521 230.415 M80.668 237.595 C 78.113 243.974,75.865 248.037,67.639 261.141 C 64.806 265.654,61.105 272.745,59.415 276.898 C 55.341 286.912,54.791 287.640,50.353 288.889 C 43.643 290.778,32.272 289.386,36.246 287.162 C 37.244 286.603,37.355 286.025,36.762 284.466 C 35.365 280.791,35.923 278.817,39.496 274.794 C 41.415 272.634,43.395 270.099,43.897 269.161 C 44.792 267.489,44.829 267.503,45.850 269.931 C 46.422 271.292,47.964 273.967,49.277 275.874 C 51.753 279.473,52.867 285.414,50.472 282.249 C 49.024 280.335,48.119 281.131,49.279 283.299 C 50.797 286.135,52.004 285.120,55.480 278.082 C 57.341 274.315,60.029 269.295,61.454 266.928 C 62.878 264.560,64.666 260.708,65.427 258.368 C 66.266 255.790,67.759 253.276,69.218 251.988 C 72.011 249.520,77.174 241.297,76.410 240.533 C 76.125 240.247,73.999 241.882,71.687 244.165 C 68.107 247.700,60.274 250.635,60.274 248.441 C 60.274 248.377,63.978 245.587,68.505 242.243 C 73.460 238.582,77.894 234.575,79.648 232.172 C 83.554 226.819,84.011 229.246,80.668 237.595 M147.087 236.744 C 148.170 242.598,148.220 254.403,147.162 254.403 C 146.699 254.403,146.380 251.548,146.380 247.404 C 146.380 243.555,146.027 240.188,145.597 239.922 C 145.166 239.656,144.814 239.573,144.814 239.739 C 144.814 239.904,144.058 244.064,143.135 248.982 C 141.800 256.093,141.439 261.134,141.374 273.581 L 141.292 289.237 138.747 294.389 C 137.071 297.781,135.672 302.458,134.651 308.087 C 133.798 312.788,132.742 317.865,132.303 319.369 C 130.468 325.668,131.875 337.855,135.779 349.485 C 138.465 357.487,137.834 357.838,134.605 350.138 C 127.558 333.339,127.694 311.149,134.932 296.866 C 137.398 291.999,138.548 285.640,138.567 276.764 C 138.575 272.861,139.093 266.145,139.716 261.840 C 140.340 257.534,140.864 251.722,140.881 248.924 C 140.915 243.292,142.056 235.104,143.380 230.983 L 144.240 228.307 145.235 230.205 C 145.782 231.249,146.616 234.192,147.087 236.744 M161.483 256.360 C 161.368 281.891,160.652 297.169,159.619 296.135 C 158.827 295.343,158.445 263.890,159.094 252.838 C 159.334 248.748,159.596 241.703,159.676 237.182 C 159.801 230.121,159.946 229.294,160.703 231.311 C 161.293 232.880,161.551 241.195,161.483 256.360 M205.761 237.378 C 205.240 238.346,204.556 240.372,204.241 241.879 C 203.926 243.386,202.719 247.789,201.560 251.663 C 200.401 255.538,199.224 261.269,198.944 264.399 C 198.664 267.530,198.082 270.171,197.652 270.270 C 196.313 270.578,196.310 265.489,197.645 258.032 C 198.349 254.099,198.815 248.591,198.680 245.793 L 198.434 240.705 196.735 243.354 C 193.913 247.754,192.539 257.807,192.711 272.798 C 192.837 283.754,192.607 287.005,191.408 291.194 C 190.333 294.951,189.833 300.105,189.497 310.895 C 189.246 318.932,188.787 325.762,188.476 326.072 C 186.782 327.762,184.984 318.041,183.979 301.761 C 183.527 294.442,182.944 287.665,182.683 286.702 C 181.462 282.185,180.993 287.209,181.002 304.690 C 181.008 315.134,180.756 327.202,180.443 331.507 C 179.926 338.615,180.126 340.630,182.626 353.425 C 186.024 370.816,186.618 375.585,185.692 378.053 C 184.498 381.238,183.559 378.351,180.460 361.979 C 178.832 353.378,176.961 345.822,176.000 343.966 C 174.250 340.590,174.245 340.754,176.434 330.068 C 177.742 323.683,178.027 318.813,177.217 316.703 C 176.507 314.852,175.342 316.025,175.342 318.591 C 175.342 319.832,175.030 321.040,174.649 321.276 C 172.744 322.453,172.420 311.286,174.194 305.604 C 174.854 303.490,175.742 297.358,176.167 291.977 C 177.240 278.401,177.702 275.538,178.822 275.538 C 181.667 275.538,183.779 261.271,181.212 259.394 C 179.162 257.894,179.991 248.118,182.647 242.488 L 184.596 238.356 184.165 245.862 C 183.491 257.588,185.493 259.645,186.602 248.367 C 187.428 239.972,188.476 237.975,192.100 237.890 C 193.862 237.848,197.065 237.362,199.217 236.808 C 205.630 235.160,206.895 235.270,205.761 237.378 M281.429 239.335 C 280.390 243.462,280.977 250.935,282.947 258.690 C 284.039 262.986,284.920 267.389,284.907 268.475 L 284.882 270.450 282.986 268.296 C 280.704 265.703,279.483 261.640,279.398 256.360 C 279.364 254.207,279.069 250.861,278.742 248.924 L 278.148 245.401 277.098 247.750 C 273.276 256.306,276.155 269.109,283.434 275.917 C 286.433 278.723,286.889 279.452,285.642 279.452 C 282.377 279.452,279.430 276.963,275.440 270.838 C 270.930 263.914,270.235 263.445,272.033 268.541 C 273.743 273.389,276.741 278.264,279.256 280.287 L 281.409 282.020 278.351 281.548 C 267.567 279.885,263.215 261.048,271.105 250.186 C 281.117 236.402,282.544 234.903,281.429 239.335 M152.688 262.231 L 152.209 285.323 149.221 291.977 C 143.623 304.441,143.204 306.449,143.763 318.119 C 144.227 327.795,144.150 328.677,142.654 330.795 C 141.770 332.048,140.626 334.922,140.113 337.182 C 139.021 341.983,137.366 342.861,138.150 338.223 C 138.435 336.536,138.950 329.051,139.295 321.589 C 139.726 312.249,140.324 306.939,141.214 304.541 L 142.506 301.059 140.530 302.915 L 138.555 304.771 139.801 301.114 C 141.037 297.486,142.450 295.638,142.483 297.605 C 142.503 298.802,145.083 295.756,146.919 292.368 C 147.925 290.511,148.225 287.316,148.353 277.104 C 148.442 270.000,148.897 262.599,149.365 260.658 C 149.833 258.717,150.596 253.785,151.062 249.699 C 153.000 232.681,153.260 234.687,152.688 262.231 M217.572 244.726 C 216.942 246.381,217.058 247.808,218.065 250.840 C 218.787 253.015,219.513 257.084,219.677 259.883 C 219.841 262.681,220.327 271.135,220.755 278.669 C 221.520 292.101,222.895 299.929,225.075 303.256 C 225.966 304.617,226.032 306.591,225.426 313.911 C 224.470 325.477,224.451 338.723,225.390 339.304 C 226.322 339.880,226.559 337.803,228.655 310.718 C 230.680 284.547,230.418 280.677,225.591 265.362 C 223.895 259.980,221.911 252.854,221.184 249.526 C 219.705 242.764,218.783 241.539,217.572 244.726 M208.219 253.937 C 208.219 259.256,205.969 273.986,203.605 284.149 C 202.115 290.554,202.038 293.362,203.053 304.305 C 203.531 309.463,202.740 309.515,200.383 304.483 C 198.760 301.018,198.556 299.508,198.665 291.763 C 198.785 283.150,199.399 279.539,202.751 267.710 C 203.871 263.760,204.425 259.535,204.446 254.795 C 204.481 246.668,204.704 245.986,206.731 247.820 C 207.883 248.862,208.219 250.243,208.219 253.937 M173.482 270.059 C 172.155 275.295,171.573 276.713,171.513 274.852 C 171.393 271.099,174.857 257.197,175.146 260.274 C 175.267 261.566,174.518 265.969,173.482 270.059 M186.014 261.068 C 185.741 261.778,185.520 263.827,185.522 265.622 C 185.524 267.416,184.928 271.770,184.197 275.297 L 182.868 281.709 184.976 285.875 C 186.136 288.167,187.084 290.830,187.084 291.792 C 187.084 294.975,188.428 293.608,188.935 289.910 C 190.581 277.898,188.279 255.165,186.014 261.068 M78.432 268.297 C 78.864 276.510,76.059 285.578,71.930 289.315 C 69.823 291.221,69.896 289.085,72.084 284.797 C 74.289 280.475,75.791 275.285,76.405 269.863 C 76.980 264.787,78.198 263.846,78.432 268.297 M312.434 266.410 C 311.956 266.986,310.063 267.941,308.228 268.533 L 304.892 269.608 311.937 270.151 C 323.682 271.056,328.101 273.186,333.609 280.596 C 336.813 284.907,338.131 285.950,344.055 288.857 C 351.326 292.426,352.797 294.019,355.043 300.757 C 357.569 308.337,356.222 309.520,352.116 303.327 C 347.748 296.738,345.814 294.848,338.160 289.696 C 334.932 287.522,330.575 284.319,328.479 282.578 C 325.478 280.085,324.439 279.604,323.587 280.311 C 322.992 280.805,322.505 280.897,322.505 280.515 C 322.505 280.133,320.303 279.712,317.613 279.579 C 307.984 279.102,302.800 277.603,299.864 274.447 L 297.966 272.407 300.181 272.407 C 302.277 272.407,302.326 272.330,301.100 270.976 C 299.257 268.939,299.383 268.753,303.523 267.432 C 310.671 265.150,313.775 264.794,312.434 266.410 M215.634 298.647 C 215.646 313.490,215.703 325.635,215.761 325.635 C 215.819 325.636,216.276 322.730,216.776 319.178 C 218.297 308.380,218.521 307.445,219.384 308.308 C 220.030 308.953,220.648 316.626,220.749 325.245 C 220.796 329.255,222.235 324.054,222.734 318.072 C 223.402 310.046,222.764 305.928,220.899 306.237 C 219.717 306.434,219.560 305.462,219.481 297.456 C 219.399 289.207,217.508 275.046,216.169 272.653 C 215.863 272.107,215.623 283.804,215.634 298.647 M255.307 273.190 C 253.986 280.793,252.748 287.201,251.595 292.403 C 250.271 298.374,250.423 301.987,251.959 301.037 C 253.725 299.946,256.039 286.859,255.775 279.452 C 255.630 275.362,255.419 272.544,255.307 273.190 M40.644 275.478 C 37.153 278.970,38.081 282.752,43.061 285.327 C 46.219 286.960,47.255 286.785,45.401 284.932 C 43.579 283.110,43.418 279.888,45.010 277.104 C 47.527 272.700,44.536 271.586,40.644 275.478 M305.797 283.022 C 309.308 284.099,312.361 285.451,312.581 286.026 C 313.836 289.296,294.141 281.315,292.334 277.821 L 291.099 275.433 295.256 278.248 C 297.542 279.796,302.286 281.945,305.797 283.022 M226.928 286.348 C 226.885 290.520,226.600 294.814,226.294 295.890 C 225.027 300.349,224.127 289.024,225.153 281.536 C 225.980 275.501,227.011 278.294,226.928 286.348 M107.737 284.736 C 106.990 290.300,103.119 297.486,98.586 301.727 C 93.709 306.289,92.517 305.821,96.901 301.065 C 100.536 297.122,103.281 292.060,105.332 285.519 C 107.056 280.022,108.430 279.575,107.737 284.736 M292.515 282.242 C 292.650 282.646,290.979 285.970,288.802 289.629 C 284.427 296.982,283.992 300.778,287.162 303.948 L 288.728 305.514 289.293 299.780 L 289.858 294.047 292.091 296.547 C 295.334 300.176,295.109 303.223,291.335 306.775 C 288.009 309.906,279.569 315.850,279.126 315.374 C 278.782 315.006,280.598 301.916,281.440 298.692 L 282.037 296.406 278.307 299.084 L 274.576 301.761 275.104 307.597 C 275.395 310.806,276.356 315.114,277.241 317.170 C 279.212 321.753,278.720 324.285,276.286 322.082 C 274.176 320.172,273.369 321.138,271.941 327.284 C 270.643 332.868,267.574 338.160,265.633 338.160 C 263.700 338.160,264.719 331.831,267.650 325.636 C 269.860 320.966,270.058 319.872,270.066 312.329 C 270.078 299.988,273.799 293.153,284.676 285.491 C 290.638 281.292,292.009 280.724,292.515 282.242 M196.468 311.907 C 196.057 315.798,195.680 321.624,195.630 324.853 C 195.543 330.378,195.492 330.539,194.771 327.593 C 193.911 324.078,194.356 304.165,195.348 301.791 C 196.610 298.770,197.246 304.520,196.468 311.907 M151.826 326.709 C 151.323 329.379,151.183 333.683,151.493 336.983 C 151.853 340.829,151.745 342.835,151.158 343.198 C 149.413 344.276,148.550 339.538,149.099 331.898 C 149.393 327.808,149.723 321.115,149.833 317.025 C 149.943 312.935,150.348 308.532,150.733 307.241 C 151.899 303.333,152.893 321.042,151.826 326.709 M261.171 325.034 C 259.673 332.469,258.024 341.977,257.506 346.163 C 256.194 356.761,254.901 358.279,253.626 350.719 C 252.463 343.821,252.879 340.246,255.970 330.596 C 257.261 326.566,258.317 322.266,258.317 321.039 C 258.317 315.725,259.307 311.525,260.511 311.732 C 261.282 311.864,261.999 310.963,262.526 309.198 L 263.343 306.458 263.618 308.987 C 263.770 310.378,262.668 317.599,261.171 325.034 M47.750 317.824 C 56.234 324.531,61.624 326.832,56.694 321.642 C 54.141 318.954,49.338 316.233,47.194 316.260 C 46.030 316.275,46.124 316.539,47.750 317.824 M217.327 335.869 C 217.037 337.320,217.028 341.532,217.307 345.230 C 217.680 350.174,217.460 353.701,216.475 358.559 C 215.339 364.160,215.281 365.853,216.091 369.675 C 217.106 374.463,216.763 380.875,215.286 384.709 C 213.849 388.440,212.941 385.701,212.928 377.591 C 212.919 372.398,212.613 370.195,211.808 369.527 C 209.518 367.626,209.242 386.653,211.345 401.530 C 211.882 405.326,211.736 407.077,210.607 410.372 C 207.723 418.794,208.086 422.807,211.378 418.881 C 212.562 417.469,212.728 416.764,212.066 415.967 C 211.409 415.175,211.785 412.925,213.586 406.870 C 214.903 402.446,216.217 397.065,216.507 394.912 C 216.797 392.759,218.749 385.018,220.846 377.710 C 224.984 363.284,225.407 360.830,223.483 362.427 C 222.084 363.588,222.140 364.135,222.301 350.985 C 222.418 341.426,221.800 338.390,218.991 334.717 C 217.917 333.313,217.826 333.377,217.327 335.869 M189.126 343.333 C 190.411 346.406,190.806 369.194,189.596 370.404 C 188.377 371.623,187.142 366.433,186.670 358.121 C 186.451 354.247,186.110 348.310,185.913 344.929 C 185.525 338.264,186.752 337.654,189.126 343.333 M99.413 341.655 C 106.086 342.729,114.188 344.054,117.417 344.601 L 123.288 345.594 119.484 345.838 C 117.392 345.971,109.918 345.514,102.877 344.820 C 81.613 342.725,79.122 344.519,75.164 364.775 C 74.034 370.557,72.826 372.431,72.810 368.428 C 72.797 365.156,74.943 356.114,77.473 348.779 C 79.338 343.372,79.399 343.448,72.139 342.151 C 62.736 340.470,63.860 339.751,75.930 339.727 C 84.354 339.710,90.408 340.207,99.413 341.655 M205.355 353.970 C 204.256 355.672,204.033 387.238,205.078 393.148 C 206.741 402.551,207.673 400.382,207.059 388.536 C 206.618 380.008,206.792 375.518,207.861 367.829 C 209.431 356.537,208.178 349.602,205.355 353.970 M173.766 388.563 C 175.732 398.216,175.731 398.243,173.518 395.559 C 169.794 391.041,169.319 386.977,170.378 368.689 L 170.944 358.904 171.566 369.863 C 171.909 375.890,172.898 384.305,173.766 388.563 M180.047 376.783 C 180.973 379.865,182.178 383.092,182.724 383.953 C 183.270 384.814,183.967 387.808,184.273 390.607 C 184.866 396.051,186.575 404.868,187.533 407.436 C 188.060 408.848,187.917 408.819,186.080 407.147 C 181.853 403.297,177.849 387.394,177.284 372.211 C 177.038 365.585,177.125 364.474,177.664 367.390 C 178.049 369.473,179.122 373.701,180.047 376.783 M227.562 436.799 L 225.905 440.721 228.021 445.036 C 230.076 449.226,230.710 453.505,229.538 455.268 C 228.396 456.985,217.613 453.373,217.613 451.273 L 217.613 449.484 220.518 450.965 C 226.432 453.980,228.720 452.644,226.178 447.661 C 225.056 445.461,224.659 443.632,224.969 442.084 C 225.484 439.510,228.281 432.877,228.851 432.877 C 229.054 432.877,228.474 434.642,227.562 436.799 M182.274 449.879 C 179.447 452.903,170.327 466.057,164.889 474.951 C 164.440 475.686,165.325 475.929,168.447 475.927 L 172.603 475.924 174.055 472.392 C 174.854 470.450,177.370 465.893,179.647 462.267 C 187.210 450.220,188.752 442.947,182.274 449.879 M194.616 461.413 C 193.918 464.193,193.346 467.715,193.346 469.241 L 193.346 472.016 195.017 470.346 C 196.373 468.989,196.741 467.517,196.978 462.518 C 197.331 455.048,196.332 454.581,194.616 461.413 M196.954 471.562 C 196.362 473.922,197.081 475.930,198.518 475.930 C 199.676 475.930,199.890 474.318,199.115 471.429 C 198.499 469.129,197.551 469.187,196.954 471.562 " stroke="none" fill="#000000" fill-rule="evenodd"></path></g></svg>